# xmcd CD database file
#
# Track frame offsets:
#	150
#	14461
#	27341
#	45016
#	68619
#	79523
#	96437
#	110338
#	127775
#	152094
#
# Disc length: 2075 seconds
#
# Revision: 3
# Processed by: cddbd v1.5.2PL0 Copyright (c) Steve Scherf et al.
# Submitted via: CDex 1.50beta8
#
DISCID=6908190a
DTITLE=Breakout - Z³ote przeboje
DYEAR=1900
DGENRE=Blues
TTITLE0=Poszlabym za toba
TTITLE1=Nie ukrywaj - wszystko wiem
TTITLE2=Na drugim brzegu teczy
TTITLE3=Czy   mnie jeszcze pamietasz?
TTITLE4=Wolanie przez Dunajec
TTITLE5=Masz na to czas
TTITLE6=Gdybys kochal, hej!
TTITLE7=Powiedzielismy juz wszystko
TTITLE8=Gdzie chcesz isc...
TTITLE9=Po ten ksiezyc zloty
EXTD=
EXTT0=
EXTT1=
EXTT2=
EXTT3=
EXTT4=
EXTT5=
EXTT6=
EXTT7=
EXTT8=
EXTT9=
PLAYORDER=
